<?xml version="1.0" encoding="UTF-8" standalone="no"?>
<!-- Created with Inkscape (http://www.inkscape.org/) -->

<svg
   xmlns:osb="http://www.openswatchbook.org/uri/2009/osb"
   xmlns:dc="http://purl.org/dc/elements/1.1/"
   xmlns:cc="http://creativecommons.org/ns#"
   xmlns:rdf="http://www.w3.org/1999/02/22-rdf-syntax-ns#"
   xmlns:svg="http://www.w3.org/2000/svg"
   xmlns="http://www.w3.org/2000/svg"
   xmlns:sodipodi="http://sodipodi.sourceforge.net/DTD/sodipodi-0.dtd"
   xmlns:inkscape="http://www.inkscape.org/namespaces/inkscape"
   width="24"
   height="24"
   id="svg3757"
   version="1.1"
   inkscape:version="0.48.4 r9939"
   sodipodi:docname="wm_indicator.svg">
  <defs
     id="defs3759">
    <linearGradient
       id="linearGradient4382"
       osb:paint="solid">
      <stop
         style="stop-color:#ffffff;stop-opacity:1;"
         offset="0"
         id="stop4384" />
    </linearGradient>
  </defs>
  <sodipodi:namedview
     id="base"
     pagecolor="#000000"
     bordercolor="#666666"
     borderopacity="1.0"
     inkscape:pageopacity="1"
     inkscape:pageshadow="2"
     inkscape:zoom="31.672167"
     inkscape:cx="3.0394406"
     inkscape:cy="13.438348"
     inkscape:current-layer="layer1"
     showgrid="true"
     inkscape:grid-bbox="true"
     inkscape:document-units="px"
     inkscape:window-width="1920"
     inkscape:window-height="1025"
     inkscape:window-x="0"
     inkscape:window-y="30"
     inkscape:window-maximized="1" />
  <metadata
     id="metadata3762">
    <rdf:RDF>
      <cc:Work
         rdf:about="">
        <dc:format>image/svg+xml</dc:format>
        <dc:type
           rdf:resource="http://purl.org/dc/dcmitype/StillImage" />
        <dc:title />
      </cc:Work>
    </rdf:RDF>
  </metadata>
  <g
     id="layer1"
     inkscape:label="Layer 1"
     inkscape:groupmode="layer"
     transform="translate(0,-8)">
    <path
       style="fill:#ffffff;fill-opacity:1;stroke:#ffffff;stroke-width:0.81300002000000005;stroke-miterlimit:4;stroke-opacity:1;stroke-dasharray:none"
       d="M 3.15625 4.4375 C 2.9753254 4.4375 2.84375 4.7006874 2.84375 5.03125 L 2.84375 18.96875 C 2.84375 19.299313 2.9753254 19.5625 3.15625 19.5625 L 20.84375 19.5625 C 21.024675 19.5625 21.15625 19.299313 21.15625 18.96875 L 21.15625 5.03125 C 21.15625 4.7006874 21.024675 4.4375 20.84375 4.4375 L 3.15625 4.4375 z M 4.1875 8.6875 L 19.8125 8.6875 C 20.010655 8.6875 20.15625 8.9072024 20.15625 9.15625 L 20.15625 18.40625 C 20.15625 18.655298 20.010655 18.875 19.8125 18.875 L 4.1875 18.875 C 3.9893451 18.875 3.84375 18.655298 3.84375 18.40625 L 3.84375 9.15625 C 3.84375 8.9072024 3.9893451 8.6875 4.1875 8.6875 z "
       id="rect4388"
       transform="translate(0,8)" />
    <rect
       style="fill:#9d9d9d;fill-opacity:1;stroke:none"
       id="rect3765"
       width="1.2629385"
       height="3.639267"
       x="13.277719"
       y="4.8671556"
       transform="matrix(0.70710678,0.70710678,-0.70710678,0.70710678,0,0)"
       rx="0.58410883"
       ry="0.63898551" />
    <rect
       ry="0.63898551"
       rx="0.58410883"
       transform="matrix(-0.70710678,0.70710678,0.70710678,0.70710678,0,0)"
       y="12.089553"
       x="6.0553198"
       height="3.639267"
       width="1.2629385"
       id="rect3767"
       style="fill:#9d9d9d;fill-opacity:1;stroke:none" />
    <rect
       style="fill:#9d9d9d;fill-opacity:1;stroke:none"
       id="rect3780"
       width="1.2629385"
       height="3.639267"
       x="23.169521"
       y="-5.024652"
       transform="matrix(0.70710678,0.70710678,-0.70710678,0.70710678,0,0)"
       rx="0.58410883"
       ry="0.63898551" />
  </g>
</svg>
